Coordinates
version=1
nRows=13
nColumns=40
inDegrees=yes

Units are S.I. units (second, meters, Newtons, ...)
Angles are in degrees.

endheader
time	pelvis_tilt	pelvis_list	pelvis_rotation	pelvis_tx	pelvis_ty	pelvis_tz	hip_flexion_r	hip_adduction_r	hip_rotation_r	knee_angle_r	knee_angle_r_beta	ankle_angle_r	subtalar_angle_r	mtp_angle_r	hip_flexion_l	hip_adduction_l	hip_rotation_l	knee_angle_l	knee_angle_l_beta	ankle_angle_l	subtalar_angle_l	mtp_angle_l	lumbar_extension	lumbar_bending	lumbar_rotation	arm_flex_r	arm_add_r	arm_rot_r	elbow_flex_r	pro_sup_r	wrist_flex_r	wrist_dev_r	arm_flex_l	arm_add_l	arm_rot_l	elbow_flex_l	pro_sup_l	wrist_flex_l	wrist_dev_l
      0.52000000	     -1.59192840	     -3.02313736	      0.27141538	     -0.89784896	      0.88331526	     -0.98849999	     -1.69708589	      3.91257287	    -10.02474796	    -19.07676558	     -0.33295237	     15.57727781	     -1.64390657	     -3.47666451	     28.90134842	      5.98195494	     10.72636661	    -42.15934568	     -0.73581939	      4.09876770	     -0.18907799	    -15.39478594	    -10.03687851	      4.60407300	      4.42244610	     14.44847315	    -12.74902540	     24.88114961	     18.62771328	     89.95437384	      0.00000000	      0.00000000	      3.21929315	      7.63153729	    -10.84207150	     25.21515096	     89.95437384	      0.00000000	      0.00000000
      0.53000000	     -0.86071099	     -2.49878530	      0.03519894	     -0.88544123	      0.88293958	     -0.98885209	     -3.65335673	      3.25333813	    -10.05923473	    -18.63914481	     -0.32531445	     15.94181847	     -1.18460813	     -3.92163397	     28.74567618	      5.35580829	     10.86770595	    -39.15571023	     -0.68339606	      2.57734018	     -0.54708816	    -15.01882350	    -10.84912452	      3.95108047	      4.70467246	     15.11815902	    -12.81964595	     24.50077126	     19.17753749	     89.95437384	      0.00000000	      0.00000000	      2.77365683	      7.67222629	    -10.48790538	     23.79724956	     89.95437384	      0.00000000	      0.00000000
      0.54000000	     -0.39934729	     -2.23190557	     -0.22158360	     -0.87328245	      0.88201582	     -0.98909675	     -5.22728994	      2.85310445	    -10.10197937	    -18.31025920	     -0.31957431	     16.17067819	     -0.52005967	     -4.42624999	     28.83636997	      4.98115570	     10.73421066	    -36.22386728	     -0.63222575	      1.26367487	     -0.88349658	    -14.46713973	    -11.39493281	      3.57692516	      4.98053980	     15.79434939	    -12.87484216	     24.00082258	     19.65624501	     89.95437384	      0.00000000	      0.00000000	      2.22977045	      7.74414486	    -10.26050242	     22.57400405	     89.95437384	      0.00000000	      0.00000000
      0.55000000	      0.17939573	     -1.88108772	     -0.52789472	     -0.86091375	      0.88121540	     -0.98947074	     -6.88066643	      2.29478624	    -10.31555948	    -18.07851495	     -0.31552961	     16.26752721	      0.25953529	     -5.14344256	     28.61598095	      4.50439133	     10.44883993	    -33.28282800	     -0.58089493	     -0.00797773	     -1.27597646	    -13.56562432	    -12.05292334	      3.11800976	      5.28781320	     16.43202957	    -12.89454784	     23.31545659	     20.13400545	     89.95437384	      0.00000000	      0.00000000	      1.66504313	      7.83061233	    -10.44004380	     21.42113981	     89.95437384	      0.00000000	      0.00000000
      0.56000000	      0.24184342	     -1.83462213	     -0.78927301	     -0.84899454	      0.87949945	     -0.98968495	     -7.81074839	      2.14332456	    -10.22832312	    -18.10495554	     -0.31599109	     16.48792210	      0.52117981	     -5.43412308	     29.05837182	      4.40513185	     10.13380404	    -30.78359547	     -0.53727510	     -1.11887959	     -1.60002165	    -12.96871735	    -12.17714924	      2.98578271	      5.54470556	     17.02028910	    -12.99330925	     22.93604144	     20.69070455	     89.95437384	      0.00000000	      0.00000000	      1.11016162	      7.91555900	    -10.64666066	     20.21504389	     89.95437384	      0.00000000	      0.00000000
      0.57000000	      0.66566159	     -1.55485242	     -1.14090659	     -0.83655138	      0.87837664	     -0.98996681	     -9.10878172	      1.65403621	    -10.26178218	    -18.21839753	     -0.31797102	     16.58666631	      0.77966190	     -5.79909489	     28.85275503	      4.09190880	     10.02403956	    -28.35030975	     -0.49480625	     -1.78029887	     -1.88476115	    -12.23994528	    -12.67688017	      2.57344798	      5.84694575	     17.51119627	    -13.03952886	     22.30418900	     21.36334706	     89.95437384	      0.00000000	      0.00000000	      0.56746187	      8.01561467	    -10.91724180	     19.04738527	     89.95437384	      0.00000000	      0.00000000
      0.58000000	      0.63666322	     -1.71960573	     -1.39991192	     -0.82430659	      0.87638640	     -0.99027392	     -9.77488037	      1.69021286	    -10.09978293	    -18.57080977	     -0.32412178	     16.59721880	      0.91857589	     -5.89732761	     29.35773640	      4.29667983	      9.91005404	    -26.68682410	     -0.46577295	     -1.68805886	     -2.06213127	    -11.97301135	    -12.67991416	      2.68063595	      6.04658245	     18.02247647	    -13.12185799	     22.02077226	     21.89194023	     89.95437384	      0.00000000	      0.00000000	     -0.18598439	      8.10310708	    -11.10584885	     18.19177810	     89.95437384	      0.00000000	      0.00000000
      0.59000000	      0.96220027	     -1.35636542	     -1.89141296	     -0.81168576	      0.87517016	     -0.99062397	    -10.69225538	      1.05081134	     -9.66912915	    -19.16331844	     -0.33446300	     16.50577053	      0.90653146	     -6.22442359	     29.10314061	      3.98748191	     10.28938813	    -24.93717290	     -0.43523577	     -1.41603502	     -2.04493968	    -11.27983840	    -13.08004246	      2.15496078	      6.49312385	     18.28408761	    -13.18778475	     21.09668453	     22.80731017	     89.95437384	      0.00000000	      0.00000000	     -0.68116301	      8.19073268	    -11.58500480	     16.99353945	     89.95437384	      0.00000000	      0.00000000
      0.60000000	      0.88121020	     -1.34401224	     -2.39107267	     -0.79924024	      0.87334862	     -0.99093798	    -11.02690398	      0.79878847	     -8.97148203	    -19.95246750	     -0.34823625	     16.25264765	      0.88722178	     -6.35285438	     29.43387143	      4.07455991	     10.53347406	    -23.89391760	     -0.41702753	     -0.78961743	     -2.02749844	    -10.91716137	    -13.05633298	      2.02941091	      6.87338880	     18.60784282	    -13.25563486	     20.63277400	     23.51584256	     89.95437384	      0.00000000	      0.00000000	     -1.34776112	      8.23180273	    -11.66568494	     16.06339877	     89.95437384	      0.00000000	      0.00000000
      0.61000000	      0.75100582	     -1.38314672	     -2.59306850	     -0.78637114	      0.87147224	     -0.99170194	    -11.39908381	      0.64893411	     -8.57805675	    -20.64669511	     -0.36035281	     15.91211916	      0.82157817	     -6.31929360	     29.89395974	      4.12471917	     10.85059796	    -23.42870559	     -0.40890805	     -0.50365781	     -1.89500966	    -10.68513079	    -12.92253745	      2.02067764	      6.80563887	     18.90467295	    -13.24886090	     20.38710494	     24.21328879	     89.95437384	      0.00000000	      0.00000000	     -2.24199461	      8.28941504	    -11.74859533	     15.33681550	     89.95437384	      0.00000000	      0.00000000
      0.62000000	      0.71186631	     -1.00571024	     -3.59846495	     -0.77317556	      0.87018260	     -0.99173726	    -11.52545784	     -0.15808419	     -7.30045503	    -21.88499155	     -0.38196516	     15.43435886	      0.35423789	     -6.49155348	     29.81936505	      4.00027642	     11.54899541	    -22.95771868	     -0.40068778	     -0.08840975	     -1.41484262	    -10.13492766	    -12.85603215	      1.41408524	      7.72799619	     18.86536000	    -13.32638647	     19.62099769	     24.99900379	     89.95437384	      0.00000000	      0.00000000	     -2.71129986	      8.21531694	    -12.10877866	     13.95615765	     89.95437384	      0.00000000	      0.00000000
      0.63000000	      0.55163753	     -1.00612993	     -3.87153556	     -0.75924688	      0.86877478	     -0.99242055	    -11.88925862	     -0.42817562	     -7.03380708	    -22.54348024	     -0.39345795	     14.94108488	      0.34157626	     -6.37454128	     30.07400044	      3.91930528	     11.26483201	    -23.19079958	     -0.40475581	     -0.17403248	     -1.34362190	     -9.91176569	    -12.58414663	      1.33423610	      7.71840347	     18.89974210	    -13.26740411	     19.47283081	     25.54461292	     89.95437384	      0.00000000	      0.00000000	     -3.81395075	      8.34300439	    -12.10329949	     13.66466999	     89.95437384	      0.00000000	      0.00000000
      0.64000000	      0.59814446	     -0.62136302	     -4.81593120	     -0.74557123	      0.86819201	     -0.99259137	    -11.93309111	     -1.28142963	     -5.83746454	    -24.01204829	     -0.41908930	     13.62341617	      0.22687469	     -6.29426358	     29.72768432	      3.62615488	     11.31663269	    -23.35027378	     -0.40753916	     -0.02103514	     -0.79891158	     -9.57499059	    -12.54402711	      0.71685304	      8.42979929	     18.95044161	    -13.17605083	     19.07161352	     25.82040399	     89.95437384	      0.00000000	      0.00000000	     -4.00943922	      8.13923170	    -12.60254829	     11.66318541	     89.95437384	      0.00000000	      0.00000000
